<?xml version="1.0" encoding="UTF-8"?> <svg xmlns="http://www.w3.org/2000/svg" width="100" height="84" viewBox="0 0 100 84" fill="none"><path d="M11.9913 77.8598H0.524321C0.419643 77.8599 0.317318 77.8287 0.230575 77.7702C0.143832 77.7118 0.0766433 77.6287 0.0376635 77.5317C-0.00131619 77.4347 -0.0102847 77.3283 0.0119023 77.2262C0.0340894 77.1241 0.086409 77.031 0.162133 76.9588L74.4133 6.54626C78.1409 2.49726 84.6433 2.96685e-07 89.892 2.96685e-07H99.4757C99.5803 -0.000111009 99.6826 0.0310984 99.7694 0.0895854C99.8561 0.148072 99.9233 0.231155 99.9623 0.328128C100.001 0.425102 100.01 0.531516 99.9881 0.633631C99.9659 0.735745 99.9136 0.828887 99.8378 0.901028L24.4222 72.7986C21.4189 76.0411 16.0476 77.8598 11.9913 77.8598ZM82.1972 62.1978C80.0356 62.1901 77.9203 62.8228 76.1193 64.016C74.3182 65.2091 72.9124 66.9089 72.0798 68.9002C71.2473 70.8914 71.0254 73.0845 71.4424 75.2017C71.8594 77.3188 72.8964 79.2649 74.4221 80.7933C75.9479 82.3218 77.8938 83.3639 80.0133 83.7877C82.1328 84.2114 84.3306 83.9979 86.3284 83.1739C88.3262 82.35 90.0341 80.9528 91.2359 79.1593C92.4376 77.3658 93.0791 75.2566 93.0791 73.0989C93.0791 70.2106 91.9308 67.4404 89.8864 65.3965C87.8419 63.3526 85.0684 62.2022 82.1749 62.1978H82.1972Z" fill="white"></path></svg> 